<?xml version="1.0" standalone="no"?>
<!DOCTYPE svg PUBLIC "-//W3C//DTD SVG 20010904//EN"
 "http://www.w3.org/TR/2001/REC-SVG-20010904/DTD/svg10.dtd">
<svg version="1.0" xmlns="http://www.w3.org/2000/svg"
 width="512.000000pt" height="512.000000pt" viewBox="0 0 512.000000 512.000000"
 preserveAspectRatio="xMidYMid meet">
<metadata>
Created by potrace 1.14, written by Peter Selinger 2001-2017
</metadata>
<g transform="translate(0.000000,512.000000) scale(0.100000,-0.100000)"
fill="#000000" stroke="none">
<path d="M1973 5101 c-194 -53 -334 -187 -388 -373 -15 -54 -18 -57 -43 -52
-113 22 -250 1 -367 -58 -148 -74 -267 -215 -320 -378 -20 -63 -24 -92 -22
-187 l2 -112 -28 -16 c-52 -31 -157 -137 -201 -204 -49 -74 -77 -132 -99 -206
-26 -86 -29 -107 -33 -208 -6 -161 40 -328 127 -453 l32 -47 -44 -35 c-136
-110 -229 -242 -283 -404 -33 -97 -41 -152 -41 -283 0 -129 6 -175 35 -270 62
-198 180 -354 356 -470 l81 -54 -2 -56 c-5 -121 41 -286 117 -412 47 -78 151
-183 233 -235 85 -53 105 -63 175 -86 52 -18 55 -21 78 -77 80 -200 260 -355
472 -406 60 -14 243 -18 301 -7 62 13 166 54 225 89 63 38 154 124 192 181 13
21 28 38 31 38 4 0 14 -12 23 -27 27 -43 98 -118 152 -158 46 -34 186 -110
186 -101 0 2 21 -3 48 -11 57 -18 229 -25 292 -13 77 16 84 18 141 39 152 57
282 179 358 334 l50 102 68 23 c285 98 500 397 506 703 l1 86 69 43 c74 46
184 148 240 223 51 69 113 200 138 292 33 123 35 311 4 432 -33 129 -68 205
-141 309 -41 59 -187 204 -205 204 -5 0 9 27 31 61 86 133 121 249 123 404 2
161 -21 255 -96 399 -44 83 -169 223 -233 261 l-31 18 3 96 c6 186 -49 324
-181 457 -63 64 -98 89 -165 122 -47 23 -101 44 -120 47 -19 3 -48 9 -65 13
-26 7 -104 7 -184 -1 -21 -2 -26 4 -36 43 -23 88 -67 163 -141 236 -116 116
-248 166 -419 160 -145 -6 -254 -55 -362 -164 -35 -35 -63 -60 -63 -55 0 16
-93 105 -146 139 -119 76 -292 102 -431 65z m241 -198 c97 -29 168 -93 214
-192 25 -54 26 -65 30 -277 l4 -221 -79 0 -78 0 -20 38 c-30 56 -77 103 -131
130 -41 20 -64 24 -134 23 -71 0 -93 -4 -135 -26 -85 -45 -136 -110 -155 -202
-30 -144 35 -273 166 -333 141 -64 315 -10 385 121 l24 46 77 0 78 0 0 -260 0
-260 -305 0 -305 0 -20 39 c-47 93 -140 151 -254 159 l-71 5 -70 123 c-75 132
-105 173 -133 176 -9 0 -73 2 -142 2 l-125 1 -1 68 c-5 223 181 418 400 418
74 0 105 -6 174 -31 64 -24 56 -24 92 -5 44 23 59 53 64 130 6 84 17 123 50
180 78 132 244 193 400 148z m951 -22 c93 -46 145 -112 180 -227 l14 -47 -32
-26 c-76 -62 -164 -160 -185 -204 -20 -42 -21 -54 -12 -82 13 -41 63 -75 99
-69 44 7 65 23 100 75 167 245 531 239 691 -12 119 -185 74 -424 -106 -557
-82 -62 -99 -98 -72 -157 13 -29 55 -55 88 -55 53 0 181 99 241 187 16 23 34
43 38 43 16 0 110 -99 145 -152 127 -193 117 -491 -23 -659 l-31 -37 -60 19
c-54 17 -65 17 -95 5 -43 -18 -68 -65 -59 -111 6 -33 43 -75 66 -75 26 0 151
-58 210 -97 128 -84 234 -233 273 -383 18 -67 25 -224 13 -295 -47 -279 -253
-490 -536 -550 -72 -15 -236 -12 -291 4 -76 23 -141 -22 -141 -96 0 -60 50
-96 152 -110 71 -10 241 -10 302 0 l49 9 -6 -59 c-19 -181 -131 -345 -297
-435 -109 -59 -241 -75 -422 -53 -55 7 -58 6 -88 -23 -32 -33 -39 -72 -19
-116 14 -30 62 -54 121 -62 24 -3 57 -9 75 -12 l31 -7 -40 -55 c-101 -135
-236 -201 -402 -196 -101 3 -177 26 -253 75 -75 50 -107 82 -148 145 -72 113
-69 73 -75 944 l-5 784 -34 30 c-29 26 -40 29 -72 25 -75 -10 -89 -43 -89
-205 l0 -130 -154 0 -153 -1 -61 106 -60 105 24 35 c62 92 61 221 -5 324 -53
85 -136 131 -241 134 l-64 2 -77 134 c-43 74 -89 143 -103 153 -24 18 -46 20
-380 20 l-355 1 -31 35 c-42 49 -106 184 -119 253 -14 74 -7 206 14 277 38
124 127 245 234 315 41 28 49 29 163 30 l120 1 23 -35 c12 -20 41 -67 62 -105
l40 -69 -23 -34 c-59 -88 -63 -221 -7 -311 84 -135 243 -187 379 -123 66 31
116 78 145 134 l19 37 305 0 305 0 0 -149 c0 -82 4 -161 10 -175 10 -27 56
-56 89 -56 33 0 67 20 84 50 15 25 17 103 17 848 0 821 1 841 35 917 77 170
294 242 470 156z m-1073 -701 c27 -27 30 -36 25 -72 -8 -57 -44 -92 -96 -92
-48 0 -86 30 -96 76 -21 95 97 157 167 88z m-474 -706 c71 -50 54 -157 -30
-178 -46 -12 -88 8 -110 52 -43 87 62 181 140 126z m-173 -793 c10 -1 67 -93
108 -173 18 -36 18 -37 -6 -75 -88 -141 -35 -336 113 -417 39 -21 72 -30 127
-35 l75 -6 78 -135 c50 -88 88 -141 106 -152 25 -15 56 -18 222 -18 l192 0 0
-512 c-1 -302 -5 -536 -11 -568 -22 -119 -107 -245 -211 -311 -274 -176 -637
-43 -730 266 -26 87 -46 110 -112 126 -243 56 -405 222 -450 460 -11 55 -12
80 -7 120 1 3 150 6 333 5 l332 -1 58 -102 59 -101 -31 -59 c-72 -136 -29
-308 97 -389 149 -97 350 -45 431 110 38 75 41 190 6 263 -50 105 -167 178
-279 174 l-50 -1 -80 140 c-58 101 -88 144 -108 154 -23 11 -111 13 -436 13
-461 1 -425 -5 -548 87 -119 90 -199 211 -243 369 l-19 67 108 0 109 0 13 -32
c37 -89 140 -157 247 -163 96 -5 180 28 244 98 78 85 96 226 43 331 -55 109
-142 161 -270 161 -63 0 -90 -5 -126 -23 -57 -28 -113 -83 -136 -133 l-18 -38
-104 -1 -104 0 7 41 c10 61 42 146 78 207 66 111 204 236 278 251 23 4 557 6
615 2z m389 -311 c72 -27 90 -107 37 -161 -83 -83 -213 25 -148 123 19 27 43
42 79 47 4 1 18 -3 32 -9z m-830 -201 c54 -25 67 -110 24 -156 -61 -66 -168
-18 -168 75 0 69 76 111 144 81z m1017 -1248 c69 -70 1 -190 -94 -166 -36 9
-69 49 -72 87 -8 93 100 144 166 79z"/>
<path d="M2873 4055 c-51 -22 -71 -79 -45 -130 30 -59 133 -127 237 -158 69
-20 197 -21 269 -2 103 27 216 99 247 156 28 53 1 120 -55 139 -41 13 -72 3
-129 -44 -106 -86 -270 -89 -376 -7 -62 48 -71 54 -94 56 -13 2 -37 -3 -54
-10z"/>
<path d="M3574 3221 c-52 -23 -128 -139 -158 -242 -17 -58 -23 -181 -12 -237
28 -138 123 -276 199 -289 45 -7 93 25 105 70 11 39 2 66 -37 115 -101 125
-97 298 9 418 30 35 34 47 30 94 -4 53 -82 94 -136 71z"/>
<path d="M2509 2645 c-60 -33 -63 -130 -6 -165 56 -35 115 -20 142 35 22 47
19 70 -12 105 -33 37 -85 47 -124 25z"/>
<path d="M3353 1855 c-207 -62 -341 -303 -284 -512 22 -79 112 -106 167 -51
26 25 28 37 24 148 -1 33 5 72 15 98 21 52 90 114 144 130 78 24 106 114 51
166 -32 31 -64 37 -117 21z"/>
</g>
</svg>
